# Blender 5.1.2
# www.blender.org
mtllib ice_cream_trophey.mtl
o Cube.003
v -0.103864 0.442769 -0.237408
v -0.028091 0.201614 -0.166634
v -0.028334 0.487205 -0.166861
v 0.047439 0.246050 -0.096087
v -0.231849 0.442769 -0.100382
v -0.156076 0.201614 -0.029608
v -0.156319 0.487205 -0.029836
v -0.080546 0.246050 0.040938
v -0.173181 0.595383 -0.199525
v -0.140706 0.492031 -0.169193
v -0.198778 0.595383 -0.172119
v -0.166303 0.492031 -0.141788
v -0.148004 0.610196 -0.176009
v -0.115530 0.506843 -0.145677
v -0.173601 0.610196 -0.148604
v -0.141127 0.506843 -0.118272
v -0.089512 0.492031 -0.224003
v -0.078687 0.457581 -0.213893
v -0.217497 0.492031 -0.086977
v -0.206673 0.457581 -0.076867
v -0.064335 0.506843 -0.200488
v -0.053511 0.472393 -0.190377
v -0.192321 0.506843 -0.063462
v -0.181496 0.472393 -0.053351
v -0.089932 0.506843 -0.173082
v -0.079108 0.472393 -0.162972
v -0.166724 0.506843 -0.090867
v -0.155899 0.472393 -0.080756
v -0.064756 0.521656 -0.149567
v -0.053931 0.487205 -0.139456
v -0.141547 0.521656 -0.067351
v -0.130722 0.487205 -0.057241
v -0.115109 0.492031 -0.196598
v -0.104284 0.457581 -0.186487
v -0.191900 0.492031 -0.114383
v -0.181075 0.457581 -0.104272
v -0.140286 0.477219 -0.220114
v -0.129461 0.442769 -0.210003
v -0.217077 0.477219 -0.137898
v -0.206252 0.442769 -0.127788
v 0.007911 0.181975 -0.133008
v -0.002914 0.216426 -0.143119
v -0.120074 0.181975 0.004018
v -0.130899 0.216426 -0.006093
v 0.033087 0.196787 -0.109493
v 0.022263 0.231238 -0.119603
v -0.094898 0.196787 0.027533
v -0.105722 0.231238 0.017423
v 0.007490 0.196787 -0.082087
v -0.003334 0.231238 -0.092198
v -0.069301 0.196787 0.000128
v -0.080125 0.231238 -0.009982
v 0.032667 0.211599 -0.058572
v 0.021842 0.246050 -0.068682
v -0.044124 0.211599 0.023644
v -0.054949 0.246050 0.013533
v -0.017686 0.181975 -0.105603
v -0.028511 0.216426 -0.115714
v -0.094477 0.181975 -0.023387
v -0.105302 0.216426 -0.033498
v -0.042863 0.167163 -0.129119
v -0.053688 0.201614 -0.139229
v -0.119654 0.167163 -0.046903
v -0.130479 0.201614 -0.057014
vn 0.6826 -0.0000 -0.7308
vn -0.6826 -0.0000 0.7308
vn -0.6714 -0.3950 -0.6271
vn 0.2887 -0.9187 0.2696
vn 0.6714 0.3950 0.6271
vn -0.2887 0.9187 -0.2696
vt 0.390625 0.125000
vt 0.281250 0.125000
vt 0.281250 0.078125
vt 0.390625 0.078125
vt 0.500000 0.125000
vt 0.500000 0.078125
vt 0.281250 0.000000
vt 0.390625 -0.000000
vt 0.140625 0.093750
vt 0.062500 0.093750
vt 0.062500 0.046875
vt 0.140625 0.046875
vt 0.390625 0.000000
vt 0.500000 -0.000000
vt 0.062500 0.000000
vt 0.140625 0.000000
vt 0.000000 0.046875
vt 0.000000 0.000000
vt 0.015625 0.000000
vt 0.015625 0.046875
vt 0.031250 0.000000
vt 0.031250 0.046875
vt 0.046875 0.000000
vt 0.046875 0.046875
vt 0.015625 0.062500
vt 0.000000 0.062500
vt 0.265625 0.000000
vt 0.281250 -0.000000
vt 0.265625 0.078125
vt 0.234375 0.031250
vt 0.234375 0.015625
vt 0.250000 0.015625
vt 0.250000 0.031250
vt 0.250000 0.078125
vt 0.250000 0.000000
vt 0.218750 0.031250
vt 0.218750 0.015625
vt 0.062500 0.031250
vt 0.062500 0.015625
vt 0.140625 0.015625
vt 0.140625 0.031250
vt 0.234375 0.000000
vt 0.234375 0.078125
vt 0.218750 0.000000
vt 0.078125 0.015625
vt 0.078125 -0.000000
vt 0.125000 0.000000
vt 0.125000 0.015625
vt 0.218750 0.062500
vt 0.203125 0.062500
vt 0.203125 0.078125
vt 0.218750 0.078125
vt 0.218750 0.046875
vt 0.203125 0.046875
vt 0.078125 0.046875
vt 0.125000 0.046875
vt 0.125000 0.031250
vt 0.078125 0.031250
vt 0.156250 0.078125
vt 0.156250 0.000000
vt 0.140625 0.078125
vt 0.187500 0.046875
vt 0.171875 0.046875
vt 0.171875 0.062500
vt 0.187500 0.062500
vt 0.171875 0.078125
vt 0.171875 0.000000
vt 0.140625 0.062500
vt 0.062500 0.062500
vt 0.062500 0.078125
vt 0.187500 0.078125
vt 0.187500 0.000000
vt 0.078125 0.093750
vt 0.125000 0.093750
vt 0.125000 0.078125
vt 0.078125 0.078125
vt 0.203125 0.015625
vt 0.203125 0.000000
vt 0.203125 0.031250
vt 0.125000 0.062500
vt 0.078125 0.062500
s 0
usemtl Material
f 3/1/1 4/2/1 2/3/1 1/4/1
f 5/5/2 6/1/2 8/4/2 7/6/2
f 1/7/3 2/8/3 6/4/3 5/3/3
f 4/9/4 8/10/4 6/11/4 2/12/4
f 3/4/5 7/13/5 8/14/5 4/6/5
f 1/12/6 5/11/6 7/15/6 3/16/6
f 9/17/3 10/18/3 12/19/3 11/20/3
f 11/20/2 12/19/2 16/21/2 15/22/2
f 15/22/5 16/21/5 14/23/5 13/24/5
f 13/24/1 14/23/1 10/15/1 9/11/1
f 11/17/6 15/20/6 13/25/6 9/26/6
f 17/27/3 18/28/3 20/3/3 19/29/3
f 19/30/2 20/31/2 24/32/2 23/33/2
f 23/29/5 24/34/5 22/35/5 21/27/5
f 21/36/1 22/37/1 18/31/1 17/30/1
f 19/38/6 23/39/6 21/40/6 17/41/6
f 27/31/2 28/42/2 32/35/2 31/32/2
f 31/30/5 32/33/5 30/34/5 29/43/5
f 29/37/1 30/44/1 26/42/1 25/31/1
f 27/45/6 31/46/6 29/47/6 25/48/6
f 35/49/2 39/50/2 40/51/2 36/52/2
f 39/43/3 37/30/3 38/36/3 40/52/3
f 37/50/1 33/49/1 34/53/1 38/54/1
f 35/55/6 33/56/6 37/57/6 39/58/6
f 41/59/3 43/60/3 44/16/3 42/61/3
f 43/62/2 47/63/2 48/64/2 44/65/2
f 47/60/5 45/59/5 46/66/5 48/67/5
f 45/54/1 41/62/1 42/65/1 46/50/1
f 43/68/4 41/69/4 45/70/4 47/61/4
f 51/65/2 55/64/2 56/66/2 52/71/2
f 55/62/5 53/72/5 54/67/5 56/63/5
f 53/50/1 49/65/1 50/71/1 54/51/1
f 51/73/4 49/74/4 53/75/4 55/76/4
f 59/77/2 60/78/2 64/44/2 63/37/2
f 63/72/3 64/78/3 62/54/3 61/62/3
f 61/37/1 62/36/1 58/79/1 57/77/1
f 59/56/4 63/80/4 61/81/4 57/55/4
o Cube.001
v -0.237605 0.452181 0.018992
v -0.158850 0.202406 0.001215
v -0.133186 0.486783 -0.004578
v -0.054430 0.237007 -0.022356
v -0.196320 0.452181 0.201890
v -0.117564 0.202406 0.184113
v -0.091900 0.486783 0.178320
v -0.013145 0.237007 0.160542
v -0.231288 0.606444 0.094453
v -0.197535 0.499398 0.086834
v -0.223030 0.606444 0.131033
v -0.189278 0.499398 0.123414
v -0.196481 0.617978 0.086596
v -0.162729 0.510931 0.078977
v -0.188224 0.617978 0.123176
v -0.154472 0.510931 0.115557
v -0.214049 0.499398 0.013675
v -0.202799 0.463715 0.011135
v -0.172764 0.499398 0.196573
v -0.161513 0.463715 0.194033
v -0.179243 0.510931 0.005818
v -0.167992 0.475249 0.003278
v -0.137957 0.510931 0.188716
v -0.126707 0.475249 0.186177
v -0.170986 0.510931 0.042398
v -0.159735 0.475249 0.039858
v -0.146215 0.510931 0.152137
v -0.134964 0.475249 0.149597
v -0.136179 0.522465 0.034541
v -0.124929 0.486783 0.032001
v -0.111408 0.522465 0.144280
v -0.100157 0.486783 0.141740
v -0.205792 0.499398 0.050255
v -0.194542 0.463715 0.047715
v -0.181021 0.499398 0.159993
v -0.169770 0.463715 0.157454
v -0.240599 0.487864 0.058111
v -0.229348 0.452181 0.055572
v -0.215827 0.487864 0.167850
v -0.204577 0.452181 0.165311
v -0.112793 0.178258 -0.009182
v -0.124043 0.213940 -0.006642
v -0.071507 0.178258 0.173716
v -0.082758 0.213940 0.176256
v -0.077986 0.189791 -0.017039
v -0.089237 0.225474 -0.014499
v -0.036700 0.189791 0.165859
v -0.047951 0.225474 0.168399
v -0.069729 0.189791 0.019541
v -0.080980 0.225474 0.022081
v -0.044958 0.189791 0.129280
v -0.056208 0.225474 0.131819
v -0.034922 0.201325 0.011684
v -0.046173 0.237007 0.014224
v -0.010151 0.201325 0.121423
v -0.021402 0.237007 0.123963
v -0.104535 0.178258 0.027398
v -0.115786 0.213940 0.029937
v -0.079764 0.178258 0.137137
v -0.091015 0.213940 0.139676
v -0.139342 0.166724 0.035255
v -0.150593 0.202406 0.037794
v -0.114570 0.166724 0.144994
v -0.125821 0.202406 0.147533
vn -0.2202 -0.0000 -0.9755
vn 0.2202 -0.0000 0.9755
vn -0.9282 -0.3076 0.2095
vn 0.3000 -0.9515 -0.0677
vn 0.9282 0.3076 -0.2095
vn -0.3000 0.9515 0.0677
vt 0.390625 0.250000
vt 0.281250 0.250000
vt 0.281250 0.203125
vt 0.390625 0.203125
vt 0.500000 0.250000
vt 0.500000 0.203125
vt 0.281250 0.125000
vt 0.390625 0.125000
vt 0.140625 0.218750
vt 0.062500 0.218750
vt 0.062500 0.171875
vt 0.140625 0.171875
vt 0.500000 0.125000
vt 0.062500 0.125000
vt 0.140625 0.125000
vt 0.000000 0.171875
vt 0.000000 0.125000
vt 0.015625 0.125000
vt 0.015625 0.171875
vt 0.031250 0.125000
vt 0.031250 0.171875
vt 0.046875 0.125000
vt 0.046875 0.171875
vt 0.015625 0.187500
vt 0.000000 0.187500
vt 0.265625 0.125000
vt 0.281250 0.125000
vt 0.265625 0.203125
vt 0.234375 0.156250
vt 0.234375 0.140625
vt 0.250000 0.140625
vt 0.250000 0.156250
vt 0.250000 0.203125
vt 0.250000 0.125000
vt 0.218750 0.156250
vt 0.218750 0.140625
vt 0.062500 0.156250
vt 0.062500 0.140625
vt 0.140625 0.140625
vt 0.140625 0.156250
vt 0.234375 0.125000
vt 0.234375 0.203125
vt 0.218750 0.125000
vt 0.078125 0.140625
vt 0.078125 0.125000
vt 0.125000 0.125000
vt 0.125000 0.140625
vt 0.218750 0.187500
vt 0.203125 0.187500
vt 0.203125 0.203125
vt 0.218750 0.203125
vt 0.218750 0.171875
vt 0.203125 0.171875
vt 0.078125 0.171875
vt 0.125000 0.171875
vt 0.125000 0.156250
vt 0.078125 0.156250
vt 0.156250 0.203125
vt 0.156250 0.125000
vt 0.140625 0.203125
vt 0.187500 0.171875
vt 0.171875 0.171875
vt 0.171875 0.187500
vt 0.187500 0.187500
vt 0.171875 0.203125
vt 0.171875 0.125000
vt 0.140625 0.187500
vt 0.062500 0.187500
vt 0.062500 0.203125
vt 0.187500 0.203125
vt 0.187500 0.125000
vt 0.078125 0.218750
vt 0.125000 0.218750
vt 0.125000 0.203125
vt 0.078125 0.203125
vt 0.203125 0.140625
vt 0.203125 0.125000
vt 0.203125 0.156250
vt 0.125000 0.187500
vt 0.078125 0.187500
s 0
usemtl Material
f 67/82/7 68/83/7 66/84/7 65/85/7
f 69/86/8 70/82/8 72/85/8 71/87/8
f 65/88/9 66/89/9 70/85/9 69/84/9
f 68/90/10 72/91/10 70/92/10 66/93/10
f 67/85/11 71/89/11 72/94/11 68/87/11
f 65/93/12 69/92/12 71/95/12 67/96/12
f 73/97/9 74/98/9 76/99/9 75/100/9
f 75/100/8 76/99/8 80/101/8 79/102/8
f 79/102/11 80/101/11 78/103/11 77/104/11
f 77/104/7 78/103/7 74/95/7 73/92/7
f 75/97/12 79/100/12 77/105/12 73/106/12
f 81/107/9 82/108/9 84/84/9 83/109/9
f 83/110/8 84/111/8 88/112/8 87/113/8
f 87/109/11 88/114/11 86/115/11 85/107/11
f 85/116/7 86/117/7 82/111/7 81/110/7
f 83/118/12 87/119/12 85/120/12 81/121/12
f 91/111/8 92/122/8 96/115/8 95/112/8
f 95/110/11 96/113/11 94/114/11 93/123/11
f 93/117/7 94/124/7 90/122/7 89/111/7
f 91/125/12 95/126/12 93/127/12 89/128/12
f 99/129/8 103/130/8 104/131/8 100/132/8
f 103/123/9 101/110/9 102/116/9 104/132/9
f 101/130/7 97/129/7 98/133/7 102/134/7
f 99/135/12 97/136/12 101/137/12 103/138/12
f 105/139/9 107/140/9 108/96/9 106/141/9
f 107/142/8 111/143/8 112/144/8 108/145/8
f 111/140/11 109/139/11 110/146/11 112/147/11
f 109/134/7 105/142/7 106/145/7 110/130/7
f 107/148/10 105/149/10 109/150/10 111/141/10
f 115/145/8 119/144/8 120/146/8 116/151/8
f 119/142/11 117/152/11 118/147/11 120/143/11
f 117/130/7 113/145/7 114/151/7 118/131/7
f 115/153/10 113/154/10 117/155/10 119/156/10
f 123/157/8 124/158/8 128/124/8 127/117/8
f 127/152/9 128/158/9 126/134/9 125/142/9
f 125/117/7 126/116/7 122/159/7 121/157/7
f 123/136/10 127/160/10 125/161/10 121/135/10
o Cube.002
v 0.026676 0.503569 -0.099433
v -0.026491 0.252530 -0.154741
v 0.107780 0.503569 -0.177396
v 0.054613 0.252530 -0.232705
v 0.150942 0.448771 0.029840
v 0.097775 0.197732 -0.025469
v 0.232046 0.448771 -0.048124
v 0.178879 0.197732 -0.103433
v 0.133798 0.625101 -0.042107
v 0.111012 0.517513 -0.065810
v 0.158651 0.614141 -0.016252
v 0.135865 0.506553 -0.039956
v 0.160833 0.625101 -0.068095
v 0.138047 0.517513 -0.091798
v 0.185686 0.614141 -0.042240
v 0.162900 0.506553 -0.065944
v 0.061306 0.539432 -0.117519
v 0.053710 0.503569 -0.125420
v 0.185572 0.484633 0.011753
v 0.177976 0.448771 0.003852
v 0.088340 0.539432 -0.143507
v 0.080745 0.503569 -0.151408
v 0.212606 0.484633 -0.014235
v 0.205011 0.448771 -0.022136
v 0.113194 0.528472 -0.117653
v 0.105598 0.492610 -0.125554
v 0.187753 0.495593 -0.040089
v 0.180158 0.459730 -0.047991
v 0.140228 0.528472 -0.143641
v 0.132633 0.492610 -0.151542
v 0.214788 0.495593 -0.066077
v 0.207193 0.459730 -0.073979
v 0.086159 0.528472 -0.091665
v 0.078564 0.492610 -0.099566
v 0.160718 0.495593 -0.014102
v 0.153123 0.459730 -0.022003
v 0.059124 0.528472 -0.065677
v 0.051529 0.492610 -0.073578
v 0.133684 0.495593 0.011886
v 0.126088 0.459730 0.003985
v -0.007051 0.216668 -0.188630
v 0.000544 0.252530 -0.180729
v 0.117215 0.161869 -0.059358
v 0.124810 0.197732 -0.051457
v 0.019983 0.216668 -0.214618
v 0.027579 0.252530 -0.206717
v 0.144249 0.161869 -0.085346
v 0.151845 0.197732 -0.077445
v 0.044837 0.205708 -0.188764
v 0.052432 0.241571 -0.180862
v 0.119396 0.172829 -0.111200
v 0.126991 0.208691 -0.103299
v 0.071871 0.205708 -0.214751
v 0.079467 0.241571 -0.206850
v 0.146431 0.172829 -0.137188
v 0.154026 0.208691 -0.129287
v 0.017802 0.205708 -0.162776
v 0.025397 0.241571 -0.154875
v 0.092361 0.172829 -0.085212
v 0.099957 0.208691 -0.077311
v -0.009233 0.205708 -0.136788
v -0.001638 0.241571 -0.128887
v 0.065327 0.172829 -0.059225
v 0.072922 0.208691 -0.051323
vn -0.6628 0.2923 -0.6895
vn 0.6628 -0.2923 0.6895
vn -0.7209 -0.0000 0.6930
vn -0.2025 -0.9563 -0.2107
vn 0.7209 -0.0000 -0.6930
vn 0.2025 0.9563 0.2107
vt 0.390625 0.375000
vt 0.281250 0.375000
vt 0.281250 0.328125
vt 0.390625 0.328125
vt 0.500000 0.375000
vt 0.500000 0.328125
vt 0.281250 0.250000
vt 0.390625 0.250000
vt 0.140625 0.343750
vt 0.062500 0.343750
vt 0.062500 0.296875
vt 0.140625 0.296875
vt 0.500000 0.250000
vt 0.062500 0.250000
vt 0.140625 0.250000
vt 0.000000 0.296875
vt 0.000000 0.250000
vt 0.015625 0.250000
vt 0.015625 0.296875
vt 0.031250 0.250000
vt 0.031250 0.296875
vt 0.046875 0.250000
vt 0.046875 0.296875
vt 0.015625 0.312500
vt 0.000000 0.312500
vt 0.265625 0.250000
vt 0.265625 0.328125
vt 0.234375 0.281250
vt 0.234375 0.265625
vt 0.250000 0.265625
vt 0.250000 0.281250
vt 0.250000 0.328125
vt 0.250000 0.250000
vt 0.218750 0.281250
vt 0.218750 0.265625
vt 0.062500 0.281250
vt 0.062500 0.265625
vt 0.140625 0.265625
vt 0.140625 0.281250
vt 0.234375 0.250000
vt 0.234375 0.328125
vt 0.218750 0.250000
vt 0.078125 0.265625
vt 0.078125 0.250000
vt 0.125000 0.250000
vt 0.125000 0.265625
vt 0.218750 0.312500
vt 0.203125 0.312500
vt 0.203125 0.328125
vt 0.218750 0.328125
vt 0.218750 0.296875
vt 0.203125 0.296875
vt 0.078125 0.296875
vt 0.125000 0.296875
vt 0.125000 0.281250
vt 0.078125 0.281250
vt 0.156250 0.328125
vt 0.156250 0.250000
vt 0.140625 0.328125
vt 0.187500 0.296875
vt 0.171875 0.296875
vt 0.171875 0.312500
vt 0.187500 0.312500
vt 0.171875 0.328125
vt 0.171875 0.250000
vt 0.140625 0.312500
vt 0.062500 0.312500
vt 0.062500 0.328125
vt 0.187500 0.328125
vt 0.187500 0.250000
vt 0.078125 0.343750
vt 0.125000 0.343750
vt 0.125000 0.328125
vt 0.078125 0.328125
vt 0.203125 0.265625
vt 0.203125 0.250000
vt 0.203125 0.281250
vt 0.125000 0.312500
vt 0.078125 0.312500
s 0
usemtl Material
f 131/162/13 132/163/13 130/164/13 129/165/13
f 133/166/14 134/162/14 136/165/14 135/167/14
f 129/168/15 130/169/15 134/165/15 133/164/15
f 132/170/16 136/171/16 134/172/16 130/173/16
f 131/165/17 135/169/17 136/174/17 132/167/17
f 129/173/18 133/172/18 135/175/18 131/176/18
f 137/177/15 138/178/15 140/179/15 139/180/15
f 139/180/14 140/179/14 144/181/14 143/182/14
f 143/182/17 144/181/17 142/183/17 141/184/17
f 141/184/13 142/183/13 138/175/13 137/172/13
f 139/177/18 143/180/18 141/185/18 137/186/18
f 145/187/15 146/168/15 148/164/15 147/188/15
f 147/189/14 148/190/14 152/191/14 151/192/14
f 151/188/17 152/193/17 150/194/17 149/187/17
f 149/195/13 150/196/13 146/190/13 145/189/13
f 147/197/18 151/198/18 149/199/18 145/200/18
f 155/190/14 156/201/14 160/194/14 159/191/14
f 159/189/17 160/192/17 158/193/17 157/202/17
f 157/196/13 158/203/13 154/201/13 153/190/13
f 155/204/18 159/205/18 157/206/18 153/207/18
f 163/208/14 167/209/14 168/210/14 164/211/14
f 167/202/15 165/189/15 166/195/15 168/211/15
f 165/209/13 161/208/13 162/212/13 166/213/13
f 163/214/18 161/215/18 165/216/18 167/217/18
f 169/218/15 171/219/15 172/176/15 170/220/15
f 171/221/14 175/222/14 176/223/14 172/224/14
f 175/219/17 173/218/17 174/225/17 176/226/17
f 173/213/13 169/221/13 170/224/13 174/209/13
f 171/227/16 169/228/16 173/229/16 175/220/16
f 179/224/14 183/223/14 184/225/14 180/230/14
f 183/221/17 181/231/17 182/226/17 184/222/17
f 181/209/13 177/224/13 178/230/13 182/210/13
f 179/232/16 177/233/16 181/234/16 183/235/16
f 187/236/14 188/237/14 192/203/14 191/196/14
f 191/231/15 192/237/15 190/213/15 189/221/15
f 189/196/13 190/195/13 186/238/13 185/236/13
f 187/215/16 191/239/16 189/240/16 185/214/16
o Cube.004
v -0.262500 -0.179707 0.257105
v -0.225000 0.420293 0.219605
v -0.262500 -0.179707 -0.267895
v -0.225000 0.420293 -0.230395
v 0.262500 -0.179707 0.257105
v 0.225000 0.420293 0.219605
v 0.262500 -0.179707 -0.267895
v 0.225000 0.420293 -0.230395
v -0.262500 0.420293 0.257105
v -0.262500 0.420293 -0.267895
v 0.262500 0.420293 -0.267895
v 0.262500 0.420293 0.257105
v -0.225000 0.157793 0.219605
v -0.225000 0.157793 -0.230395
v 0.225000 0.157793 0.219605
v 0.225000 0.157793 -0.230395
vn -1.0000 -0.0000 -0.0000
vn -0.0000 -0.0000 -1.0000
vn 1.0000 -0.0000 -0.0000
vn -0.0000 -0.0000 1.0000
vn -0.0000 -1.0000 -0.0000
vn -0.0000 1.0000 -0.0000
vt 0.750000 0.000000
vt 1.000000 -0.000000
vt 1.000000 0.218750
vt 0.750000 0.218750
vt 1.000000 0.437500
vt 0.750000 0.437500
vt 0.500000 0.000000
vt 0.500000 0.218750
vt 0.500000 0.437500
vt 1.000000 0.656250
vt 0.781250 0.656250
vt 0.781250 0.437500
vt 0.578125 0.453125
vt 0.578125 0.640625
vt 0.562500 0.656250
vt 0.562500 0.437500
vt 0.765625 0.640625
vt 0.765625 0.453125
vt 0.562500 1.000000
vt 0.562500 0.812500
vt 0.671875 0.812500
vt 0.671875 1.000000
vt 0.781250 1.000000
vt 0.781250 0.812500
vt 0.890625 0.812500
vt 0.890625 1.000000
vt 1.000000 0.812500
vt 1.000000 1.000000
vt 0.375000 1.000000
vt 0.375000 0.812500
s 0
usemtl Material
f 193/241/19 201/242/19 202/243/19 195/244/19
f 195/244/20 202/243/20 203/245/20 199/246/20
f 199/247/21 203/241/21 204/244/21 197/248/21
f 197/248/22 204/244/22 201/246/22 193/249/22
f 195/250/23 199/251/23 197/252/23 193/245/23
f 194/253/24 196/254/24 202/255/24 201/256/24
f 196/254/24 200/257/24 203/251/24 202/255/24
f 200/257/24 198/258/24 204/252/24 203/251/24
f 198/258/24 194/253/24 201/256/24 204/252/24
f 194/259/20 198/260/20 207/261/20 205/262/20
f 200/263/22 196/264/22 206/265/22 208/266/22
f 198/266/19 200/265/19 208/267/19 207/268/19
f 196/262/21 194/261/21 205/264/21 206/263/21
f 205/269/24 207/270/24 208/260/24 206/259/24
o Cube.005
v -0.184514 0.296106 -0.146423
v -0.184514 0.371106 -0.146423
v -0.238420 0.296106 -0.198568
v -0.238420 0.371106 -0.198568
v -0.132369 0.296106 -0.200329
v -0.132369 0.371106 -0.200329
v -0.186275 0.296106 -0.252474
v -0.186275 0.371106 -0.252474
vn -0.6953 -0.0000 0.7187
vn -0.7187 -0.0000 -0.6953
vn 0.6953 -0.0000 -0.7187
vn 0.7187 -0.0000 0.6953
vn -0.0000 -1.0000 -0.0000
vn -0.0000 1.0000 -0.0000
vt 0.093750 0.968750
vt 0.093750 1.000000
vt 0.062500 1.000000
vt 0.062500 0.968750
vt 0.031250 1.000000
vt 0.031250 0.968750
vt 0.156250 0.968750
vt 0.187500 0.968750
vt 0.187500 1.000000
vt 0.156250 1.000000
vt 0.125000 1.000000
vt 0.125000 0.968750
vt -0.000000 1.000000
vt 0.000000 0.968750
s 0
usemtl Material
f 209/271/25 210/272/25 212/273/25 211/274/25
f 211/275/26 212/276/26 216/274/26 215/273/26
f 215/277/27 216/278/27 214/279/27 213/280/27
f 213/280/28 214/281/28 210/282/28 209/277/28
f 211/283/29 215/284/29 213/276/29 209/275/29
f 216/272/30 212/271/30 210/282/30 214/281/30
o Cube.006
v -0.050774 0.342292 -0.184727
v -0.050774 0.415301 -0.201893
v 0.004548 0.330701 -0.234023
v 0.004548 0.403710 -0.251189
v -0.000134 0.354954 -0.130873
v -0.000134 0.427963 -0.148039
v 0.055188 0.343363 -0.180169
v 0.055188 0.416373 -0.197335
vn -0.6752 -0.1688 -0.7181
vn 0.7376 -0.1545 -0.6573
vn 0.6752 0.1688 0.7181
vn -0.7376 0.1545 0.6573
vn -0.0000 -0.9735 0.2289
vn -0.0000 0.9735 -0.2289
vt 0.093750 0.968750
vt 0.093750 1.000000
vt 0.062500 1.000000
vt 0.062500 0.968750
vt 0.031250 1.000000
vt 0.031250 0.968750
vt 0.156250 0.968750
vt 0.187500 0.968750
vt 0.187500 1.000000
vt 0.156250 1.000000
vt 0.125000 1.000000
vt 0.125000 0.968750
vt -0.000000 1.000000
vt 0.000000 0.968750
s 0
usemtl Material
f 217/285/31 218/286/31 220/287/31 219/288/31
f 219/289/32 220/290/32 224/288/32 223/287/32
f 223/291/33 224/292/33 222/293/33 221/294/33
f 221/294/34 222/295/34 218/296/34 217/291/34
f 219/297/35 223/298/35 221/290/35 217/289/35
f 224/286/36 220/285/36 218/296/36 222/295/36
o Cube.007
v 0.067427 0.245838 -0.180646
v 0.067427 0.320838 -0.180646
v 0.097073 0.245838 -0.249539
v 0.097073 0.320838 -0.249539
v 0.136319 0.245838 -0.151001
v 0.136319 0.320838 -0.151001
v 0.165965 0.245838 -0.219893
v 0.165965 0.320838 -0.219893
vn -0.9186 -0.0000 -0.3953
vn 0.3953 -0.0000 -0.9186
vn 0.9186 -0.0000 0.3953
vn -0.3953 -0.0000 0.9186
vn -0.0000 -1.0000 -0.0000
vn -0.0000 1.0000 -0.0000
vt 0.093750 0.968750
vt 0.093750 1.000000
vt 0.062500 1.000000
vt 0.062500 0.968750
vt 0.031250 1.000000
vt 0.031250 0.968750
vt 0.156250 0.968750
vt 0.187500 0.968750
vt 0.187500 1.000000
vt 0.156250 1.000000
vt 0.125000 1.000000
vt 0.125000 0.968750
vt -0.000000 1.000000
vt 0.000000 0.968750
s 0
usemtl Material
f 225/299/37 226/300/37 228/301/37 227/302/37
f 227/303/38 228/304/38 232/302/38 231/301/38
f 231/305/39 232/306/39 230/307/39 229/308/39
f 229/308/40 230/309/40 226/310/40 225/305/40
f 227/311/41 231/312/41 229/304/41 225/303/41
f 232/300/42 228/299/42 226/310/42 230/309/42
o Cube.008
v 0.126839 0.318258 -0.188673
v 0.141097 0.390584 -0.202478
v 0.173870 0.298493 -0.243649
v 0.188129 0.370819 -0.257454
v 0.183493 0.316463 -0.139561
v 0.197752 0.388789 -0.153365
v 0.230525 0.296698 -0.194537
v 0.244783 0.369024 -0.208341
vn -0.7554 0.0239 -0.6548
vn 0.6271 -0.2635 -0.7330
vn 0.7554 -0.0239 0.6548
vn -0.6271 0.2635 0.7330
vn -0.1901 -0.9644 0.1841
vn 0.1901 0.9644 -0.1841
vt 0.093750 0.968750
vt 0.093750 1.000000
vt 0.062500 1.000000
vt 0.062500 0.968750
vt 0.031250 1.000000
vt 0.031250 0.968750
vt 0.156250 0.968750
vt 0.187500 0.968750
vt 0.187500 1.000000
vt 0.156250 1.000000
vt 0.125000 1.000000
vt 0.125000 0.968750
vt -0.000000 1.000000
vt 0.000000 0.968750
s 0
usemtl Material
f 233/313/43 234/314/43 236/315/43 235/316/43
f 235/317/44 236/318/44 240/316/44 239/315/44
f 239/319/45 240/320/45 238/321/45 237/322/45
f 237/322/46 238/323/46 234/324/46 233/319/46
f 235/325/47 239/326/47 237/318/47 233/317/47
f 240/314/48 236/313/48 234/324/48 238/323/48
o Cube.009
v 0.132278 0.245838 -0.127288
v 0.132278 0.320838 -0.127288
v 0.161924 0.245838 -0.196180
v 0.161924 0.320838 -0.196180
v 0.201171 0.245838 -0.097642
v 0.201171 0.320838 -0.097642
v 0.230816 0.245838 -0.166534
v 0.230816 0.320838 -0.166534
vn -0.9186 -0.0000 -0.3953
vn 0.3953 -0.0000 -0.9186
vn 0.9186 -0.0000 0.3953
vn -0.3953 -0.0000 0.9186
vn -0.0000 -1.0000 -0.0000
vn -0.0000 1.0000 -0.0000
vt 0.093750 0.968750
vt 0.093750 1.000000
vt 0.062500 1.000000
vt 0.062500 0.968750
vt 0.031250 1.000000
vt 0.031250 0.968750
vt 0.156250 0.968750
vt 0.187500 0.968750
vt 0.187500 1.000000
vt 0.156250 1.000000
vt 0.125000 1.000000
vt 0.125000 0.968750
vt -0.000000 1.000000
vt 0.000000 0.968750
s 0
usemtl Material
f 241/327/49 242/328/49 244/329/49 243/330/49
f 243/331/50 244/332/50 248/330/50 247/329/50
f 247/333/51 248/334/51 246/335/51 245/336/51
f 245/336/52 246/337/52 242/338/52 241/333/52
f 243/339/53 247/340/53 245/332/53 241/331/53
f 248/328/54 244/327/54 242/338/54 246/337/54
o Cube.010
v -0.077929 0.267407 -0.000048
v -0.077929 0.342407 -0.000048
v -0.030402 0.267407 -0.058067
v -0.030402 0.342407 -0.058067
v -0.019910 0.267407 0.047479
v -0.019910 0.342407 0.047479
v 0.027617 0.267407 -0.010540
v 0.027617 0.342407 -0.010540
vn -0.7736 -0.0000 -0.6337
vn 0.6337 -0.0000 -0.7736
vn 0.7736 -0.0000 0.6337
vn -0.6337 -0.0000 0.7736
vn -0.0000 -1.0000 -0.0000
vn -0.0000 1.0000 -0.0000
vt 0.093750 0.968750
vt 0.093750 1.000000
vt 0.062500 1.000000
vt 0.062500 0.968750
vt 0.031250 1.000000
vt 0.031250 0.968750
vt 0.156250 0.968750
vt 0.187500 0.968750
vt 0.187500 1.000000
vt 0.156250 1.000000
vt 0.125000 1.000000
vt 0.125000 0.968750
vt -0.000000 1.000000
vt 0.000000 0.968750
s 0
usemtl Material
f 249/341/55 250/342/55 252/343/55 251/344/55
f 251/345/56 252/346/56 256/344/56 255/343/56
f 255/347/57 256/348/57 254/349/57 253/350/57
f 253/350/58 254/351/58 250/352/58 249/347/58
f 251/353/59 255/354/59 253/346/59 249/345/59
f 256/342/60 252/341/60 250/352/60 254/351/60
o Cube.011
v 0.005590 0.218566 0.004256
v 0.005590 0.293566 0.004256
v -0.022262 0.218566 -0.065380
v -0.022262 0.293566 -0.065380
v 0.075227 0.218566 -0.023597
v 0.075227 0.293566 -0.023597
v 0.047374 0.218566 -0.093233
v 0.047374 0.293566 -0.093233
vn -0.9285 -0.0000 0.3714
vn -0.3714 -0.0000 -0.9285
vn 0.9285 -0.0000 -0.3714
vn 0.3714 -0.0000 0.9285
vn -0.0000 -1.0000 -0.0000
vn -0.0000 1.0000 -0.0000
vt 0.093750 0.968750
vt 0.093750 1.000000
vt 0.062500 1.000000
vt 0.062500 0.968750
vt 0.031250 1.000000
vt 0.031250 0.968750
vt 0.156250 0.968750
vt 0.187500 0.968750
vt 0.187500 1.000000
vt 0.156250 1.000000
vt 0.125000 1.000000
vt 0.125000 0.968750
vt -0.000000 1.000000
vt 0.000000 0.968750
s 0
usemtl Material
f 257/355/61 258/356/61 260/357/61 259/358/61
f 259/359/62 260/360/62 264/358/62 263/357/62
f 263/361/63 264/362/63 262/363/63 261/364/63
f 261/364/64 262/365/64 258/366/64 257/361/64
f 259/367/65 263/368/65 261/360/65 257/359/65
f 264/356/66 260/355/66 258/366/66 262/365/66
o Cube.012
v -0.011136 0.199229 0.082158
v -0.011136 0.274229 0.082158
v -0.059935 0.199229 0.025205
v -0.059935 0.274229 0.025205
v 0.045817 0.199229 0.033359
v 0.045817 0.274229 0.033359
v -0.002982 0.199229 -0.023594
v -0.002982 0.274229 -0.023594
vn -0.7594 -0.0000 0.6507
vn -0.6507 -0.0000 -0.7594
vn 0.7594 -0.0000 -0.6507
vn 0.6507 -0.0000 0.7594
vn -0.0000 -1.0000 -0.0000
vn -0.0000 1.0000 -0.0000
vt 0.093750 0.968750
vt 0.093750 1.000000
vt 0.062500 1.000000
vt 0.062500 0.968750
vt 0.031250 1.000000
vt 0.031250 0.968750
vt 0.156250 0.968750
vt 0.187500 0.968750
vt 0.187500 1.000000
vt 0.156250 1.000000
vt 0.125000 1.000000
vt 0.125000 0.968750
vt -0.000000 1.000000
vt 0.000000 0.968750
s 0
usemtl Material
f 265/369/67 266/370/67 268/371/67 267/372/67
f 267/373/68 268/374/68 272/372/68 271/371/68
f 271/375/69 272/376/69 270/377/69 269/378/69
f 269/378/70 270/379/70 266/380/70 265/375/70
f 267/381/71 271/382/71 269/374/71 265/373/71
f 272/370/72 268/369/72 266/380/72 270/379/72
o Cube.013
v 0.147953 0.243493 -0.047320
v 0.147953 0.318493 -0.047320
v 0.221964 0.243493 -0.059455
v 0.221964 0.318493 -0.059455
v 0.160088 0.243493 0.026692
v 0.160088 0.318493 0.026692
v 0.234099 0.243493 0.014557
v 0.234099 0.318493 0.014557
vn -0.1618 -0.0000 -0.9868
vn 0.9868 -0.0000 -0.1618
vn 0.1618 -0.0000 0.9868
vn -0.9868 -0.0000 0.1618
vn -0.0000 -1.0000 -0.0000
vn -0.0000 1.0000 -0.0000
vt 0.093750 0.968750
vt 0.093750 1.000000
vt 0.062500 1.000000
vt 0.062500 0.968750
vt 0.031250 1.000000
vt 0.031250 0.968750
vt 0.156250 0.968750
vt 0.187500 0.968750
vt 0.187500 1.000000
vt 0.156250 1.000000
vt 0.125000 1.000000
vt 0.125000 0.968750
vt -0.000000 1.000000
vt 0.000000 0.968750
s 0
usemtl Material
f 273/383/73 274/384/73 276/385/73 275/386/73
f 275/387/74 276/388/74 280/386/74 279/385/74
f 279/389/75 280/390/75 278/391/75 277/392/75
f 277/392/76 278/393/76 274/394/76 273/389/76
f 275/395/77 279/396/77 277/388/77 273/387/77
f 280/384/78 276/383/78 274/394/78 278/393/78
o Cube.014
v 0.052307 0.204584 0.015082
v 0.052307 0.279584 0.015082
v 0.070371 0.204584 -0.057710
v 0.070371 0.279584 -0.057710
v 0.125099 0.204584 0.033147
v 0.125099 0.279584 0.033147
v 0.143163 0.204584 -0.039645
v 0.143163 0.279584 -0.039645
vn -0.9706 -0.0000 -0.2409
vn 0.2409 -0.0000 -0.9706
vn 0.9706 -0.0000 0.2409
vn -0.2409 -0.0000 0.9706
vn -0.0000 -1.0000 -0.0000
vn -0.0000 1.0000 -0.0000
vt 0.093750 0.968750
vt 0.093750 1.000000
vt 0.062500 1.000000
vt 0.062500 0.968750
vt 0.031250 1.000000
vt 0.031250 0.968750
vt 0.156250 0.968750
vt 0.187500 0.968750
vt 0.187500 1.000000
vt 0.156250 1.000000
vt 0.125000 1.000000
vt 0.125000 0.968750
vt -0.000000 1.000000
vt 0.000000 0.968750
s 0
usemtl Material
f 281/397/79 282/398/79 284/399/79 283/400/79
f 283/401/80 284/402/80 288/400/80 287/399/80
f 287/403/81 288/404/81 286/405/81 285/406/81
f 285/406/82 286/407/82 282/408/82 281/403/82
f 283/409/83 287/410/83 285/402/83 281/401/83
f 288/398/84 284/397/84 282/408/84 286/407/84
o Cube.015
v 0.028808 0.188706 0.152973
v 0.028808 0.263706 0.152973
v -0.043543 0.188706 0.133215
v -0.043543 0.263706 0.133215
v 0.048565 0.188706 0.080622
v 0.048565 0.263706 0.080622
v -0.023786 0.188706 0.060864
v -0.023786 0.263706 0.060864
vn -0.2634 -0.0000 0.9647
vn -0.9647 -0.0000 -0.2634
vn 0.2634 -0.0000 -0.9647
vn 0.9647 -0.0000 0.2634
vn -0.0000 -1.0000 -0.0000
vn -0.0000 1.0000 -0.0000
vt 0.093750 0.968750
vt 0.093750 1.000000
vt 0.062500 1.000000
vt 0.062500 0.968750
vt 0.031250 1.000000
vt 0.031250 0.968750
vt 0.156250 0.968750
vt 0.187500 0.968750
vt 0.187500 1.000000
vt 0.156250 1.000000
vt 0.125000 1.000000
vt 0.125000 0.968750
vt -0.000000 1.000000
vt 0.000000 0.968750
s 0
usemtl Material
f 289/411/85 290/412/85 292/413/85 291/414/85
f 291/415/86 292/416/86 296/414/86 295/413/86
f 295/417/87 296/418/87 294/419/87 293/420/87
f 293/420/88 294/421/88 290/422/88 289/417/88
f 291/423/89 295/424/89 293/416/89 289/415/89
f 296/412/90 292/411/90 290/422/90 294/421/90
o Cube.016
v -0.132012 0.263269 0.234526
v -0.132012 0.338269 0.234526
v -0.133960 0.263269 0.159551
v -0.133960 0.338269 0.159551
v -0.057037 0.263269 0.232579
v -0.057037 0.338269 0.232579
v -0.058985 0.263269 0.157604
v -0.058985 0.338269 0.157604
vn -0.9997 -0.0000 0.0260
vn -0.0260 -0.0000 -0.9997
vn 0.9997 -0.0000 -0.0260
vn 0.0260 -0.0000 0.9997
vn -0.0000 -1.0000 -0.0000
vn -0.0000 1.0000 -0.0000
vt 0.093750 0.968750
vt 0.093750 1.000000
vt 0.062500 1.000000
vt 0.062500 0.968750
vt 0.031250 1.000000
vt 0.031250 0.968750
vt 0.156250 0.968750
vt 0.187500 0.968750
vt 0.187500 1.000000
vt 0.156250 1.000000
vt 0.125000 1.000000
vt 0.125000 0.968750
vt -0.000000 1.000000
vt 0.000000 0.968750
s 0
usemtl Material
f 297/425/91 298/426/91 300/427/91 299/428/91
f 299/429/92 300/430/92 304/428/92 303/427/92
f 303/431/93 304/432/93 302/433/93 301/434/93
f 301/434/94 302/435/94 298/436/94 297/431/94
f 299/437/95 303/438/95 301/430/95 297/429/95
f 304/426/96 300/425/96 298/436/96 302/435/96
o Cube.017
v -0.218757 0.304160 0.238738
v -0.218757 0.379160 0.238738
v -0.231222 0.304160 0.164781
v -0.231222 0.379160 0.164781
v -0.144800 0.304160 0.226274
v -0.144800 0.379160 0.226274
v -0.157265 0.304160 0.152317
v -0.157265 0.379160 0.152317
vn -0.9861 -0.0000 0.1662
vn -0.1662 -0.0000 -0.9861
vn 0.9861 -0.0000 -0.1662
vn 0.1662 -0.0000 0.9861
vn -0.0000 -1.0000 -0.0000
vn -0.0000 1.0000 -0.0000
vt 0.093750 0.968750
vt 0.093750 1.000000
vt 0.062500 1.000000
vt 0.062500 0.968750
vt 0.031250 1.000000
vt 0.031250 0.968750
vt 0.156250 0.968750
vt 0.187500 0.968750
vt 0.187500 1.000000
vt 0.156250 1.000000
vt 0.125000 1.000000
vt 0.125000 0.968750
vt -0.000000 1.000000
vt 0.000000 0.968750
s 0
usemtl Material
f 305/439/97 306/440/97 308/441/97 307/442/97
f 307/443/98 308/444/98 312/442/98 311/441/98
f 311/445/99 312/446/99 310/447/99 309/448/99
f 309/448/100 310/449/100 306/450/100 305/445/100
f 307/451/101 311/452/101 309/444/101 305/443/101
f 312/440/102 308/439/102 306/450/102 310/449/102
o Plane
v -0.225000 0.195293 0.219605
v 0.225000 0.195293 0.219605
v -0.225000 0.195293 -0.230395
v 0.225000 0.195293 -0.230395
vn -0.0000 1.0000 -0.0000
vt 0.578125 0.453125
vt 0.765625 0.453125
vt 0.765625 0.640625
vt 0.578125 0.640625
s 0
usemtl Material
f 313/453/103 314/454/103 316/455/103 315/456/103
o Cube.018
v -0.079738 0.190003 0.203399
v -0.079738 0.265003 0.203399
v -0.053189 0.190003 0.133255
v -0.053189 0.265003 0.133255
v -0.009594 0.190003 0.229948
v -0.009594 0.265003 0.229948
v 0.016955 0.190003 0.159804
v 0.016955 0.265003 0.159804
vn -0.9353 -0.0000 -0.3540
vn 0.3540 -0.0000 -0.9353
vn 0.9353 -0.0000 0.3540
vn -0.3540 -0.0000 0.9353
vn -0.0000 -1.0000 -0.0000
vn -0.0000 1.0000 -0.0000
vt 0.093750 0.968750
vt 0.093750 1.000000
vt 0.062500 1.000000
vt 0.062500 0.968750
vt 0.031250 1.000000
vt 0.031250 0.968750
vt 0.156250 0.968750
vt 0.187500 0.968750
vt 0.187500 1.000000
vt 0.156250 1.000000
vt 0.125000 1.000000
vt 0.125000 0.968750
vt -0.000000 1.000000
vt 0.000000 0.968750
s 0
usemtl Material
f 317/457/104 318/458/104 320/459/104 319/460/104
f 319/461/105 320/462/105 324/460/105 323/459/105
f 323/463/106 324/464/106 322/465/106 321/466/106
f 321/466/107 322/467/107 318/468/107 317/463/107
f 319/469/108 323/470/108 321/462/108 317/461/108
f 324/458/109 320/457/109 318/468/109 322/467/109
o Cube.019
v 0.118598 0.204584 0.052162
v 0.118598 0.279584 0.052162
v 0.161789 0.204584 -0.009152
v 0.161789 0.279584 -0.009152
v 0.179912 0.204584 0.095354
v 0.179912 0.279584 0.095354
v 0.223104 0.204584 0.034040
v 0.223104 0.279584 0.034040
vn -0.8175 -0.0000 -0.5759
vn 0.5759 -0.0000 -0.8175
vn 0.8175 -0.0000 0.5759
vn -0.5759 -0.0000 0.8175
vn -0.0000 -1.0000 -0.0000
vn -0.0000 1.0000 -0.0000
vt 0.093750 0.968750
vt 0.093750 1.000000
vt 0.062500 1.000000
vt 0.062500 0.968750
vt 0.031250 1.000000
vt 0.031250 0.968750
vt 0.156250 0.968750
vt 0.187500 0.968750
vt 0.187500 1.000000
vt 0.156250 1.000000
vt 0.125000 1.000000
vt 0.125000 0.968750
vt -0.000000 1.000000
vt 0.000000 0.968750
s 0
usemtl Material
f 325/471/110 326/472/110 328/473/110 327/474/110
f 327/475/111 328/476/111 332/474/111 331/473/111
f 331/477/112 332/478/112 330/479/112 329/480/112
f 329/480/113 330/481/113 326/482/113 325/477/113
f 327/483/114 331/484/114 329/476/114 325/475/114
f 332/472/115 328/471/115 326/482/115 330/481/115
o Cube.020
v 0.114386 0.204584 0.133278
v 0.114386 0.279584 0.133278
v 0.186185 0.204584 0.111600
v 0.186185 0.279584 0.111600
v 0.136064 0.204584 0.205077
v 0.136064 0.279584 0.205077
v 0.207863 0.204584 0.183399
v 0.207863 0.279584 0.183399
vn -0.2890 -0.0000 -0.9573
vn 0.9573 -0.0000 -0.2890
vn 0.2890 -0.0000 0.9573
vn -0.9573 -0.0000 0.2890
vn -0.0000 -1.0000 -0.0000
vn -0.0000 1.0000 -0.0000
vt 0.093750 0.968750
vt 0.093750 1.000000
vt 0.062500 1.000000
vt 0.062500 0.968750
vt 0.031250 1.000000
vt 0.031250 0.968750
vt 0.156250 0.968750
vt 0.187500 0.968750
vt 0.187500 1.000000
vt 0.156250 1.000000
vt 0.125000 1.000000
vt 0.125000 0.968750
vt -0.000000 1.000000
vt 0.000000 0.968750
s 0
usemtl Material
f 333/485/116 334/486/116 336/487/116 335/488/116
f 335/489/117 336/490/117 340/488/117 339/487/117
f 339/491/118 340/492/118 338/493/118 337/494/118
f 337/494/119 338/495/119 334/496/119 333/491/119
f 335/497/120 339/498/120 337/490/120 333/489/120
f 340/486/121 336/485/121 334/496/121 338/495/121
o Cube.021
v 0.112665 0.204584 0.040801
v 0.112665 0.279584 0.040801
v 0.145221 0.204584 0.108367
v 0.145221 0.279584 0.108367
v 0.045099 0.204584 0.073356
v 0.045099 0.279584 0.073356
v 0.077655 0.204584 0.140922
v 0.077655 0.279584 0.140922
vn 0.9009 -0.0000 -0.4341
vn 0.4341 -0.0000 0.9009
vn -0.9009 -0.0000 0.4341
vn -0.4341 -0.0000 -0.9009
vn -0.0000 -1.0000 -0.0000
vn -0.0000 1.0000 -0.0000
vt 0.093750 0.968750
vt 0.093750 1.000000
vt 0.062500 1.000000
vt 0.062500 0.968750
vt 0.031250 1.000000
vt 0.031250 0.968750
vt 0.156250 0.968750
vt 0.187500 0.968750
vt 0.187500 1.000000
vt 0.156250 1.000000
vt 0.125000 1.000000
vt 0.125000 0.968750
vt -0.000000 1.000000
vt 0.000000 0.968750
s 0
usemtl Material
f 341/499/122 342/500/122 344/501/122 343/502/122
f 343/503/123 344/504/123 348/502/123 347/501/123
f 347/505/124 348/506/124 346/507/124 345/508/124
f 345/508/125 346/509/125 342/510/125 341/505/125
f 343/511/126 347/512/126 345/504/126 341/503/126
f 348/500/127 344/499/127 342/510/127 346/509/127
o Cube.022
v 0.109731 0.204584 0.146400
v 0.109731 0.279584 0.146400
v 0.099783 0.204584 0.220737
v 0.099783 0.279584 0.220737
v 0.035393 0.204584 0.136452
v 0.035393 0.279584 0.136452
v 0.025446 0.204584 0.210790
v 0.025446 0.279584 0.210790
vn 0.9912 -0.0000 0.1326
vn -0.1326 -0.0000 0.9912
vn -0.9912 -0.0000 -0.1326
vn 0.1326 -0.0000 -0.9912
vn -0.0000 -1.0000 -0.0000
vn -0.0000 1.0000 -0.0000
vt 0.093750 0.968750
vt 0.093750 1.000000
vt 0.062500 1.000000
vt 0.062500 0.968750
vt 0.031250 1.000000
vt 0.031250 0.968750
vt 0.156250 0.968750
vt 0.187500 0.968750
vt 0.187500 1.000000
vt 0.156250 1.000000
vt 0.125000 1.000000
vt 0.125000 0.968750
vt -0.000000 1.000000
vt 0.000000 0.968750
s 0
usemtl Material
f 349/513/128 350/514/128 352/515/128 351/516/128
f 351/517/129 352/518/129 356/516/129 355/515/129
f 355/519/130 356/520/130 354/521/130 353/522/130
f 353/522/131 354/523/131 350/524/131 349/519/131
f 351/525/132 355/526/132 353/518/132 349/517/132
f 356/514/133 352/513/133 350/524/133 354/523/133
o Cube.023
v -0.262500 0.382793 0.257105
v -0.262500 0.457793 0.257105
v -0.262500 0.382793 -0.267895
v -0.262500 0.457793 -0.267895
v 0.262500 0.382793 0.257105
v 0.262500 0.457793 0.257105
v 0.262500 0.382793 -0.267895
v 0.262500 0.457793 -0.267895
v -0.300000 0.382793 -0.305395
v -0.300000 0.382793 0.294605
v -0.300000 0.457793 0.294605
v -0.300000 0.457793 -0.305395
v 0.300000 0.382793 -0.305395
v 0.300000 0.457793 -0.305395
v 0.300000 0.382793 0.294605
v 0.300000 0.457793 0.294605
vn -1.0000 -0.0000 -0.0000
vn -0.0000 -0.0000 -1.0000
vn 1.0000 -0.0000 -0.0000
vn -0.0000 -0.0000 1.0000
vn -0.0000 -1.0000 -0.0000
vn -0.0000 1.0000 -0.0000
vt 0.750000 0.718750
vt 0.750000 0.750000
vt 0.500000 0.750000
vt 0.500000 0.718750
vt 1.000000 0.718750
vt 1.000000 0.750000
vt 0.750000 0.687500
vt 0.500000 0.687500
vt 1.000000 0.687500
vt 0.781250 0.781250
vt 0.781250 0.812500
vt 0.562500 0.812500
vt 0.562500 0.781250
vt 1.000000 0.781250
vt 1.000000 0.812500
vt 0.546875 0.671875
vt 0.546875 0.453125
vt 0.562500 0.437500
vt 0.562500 0.687500
vt 0.078125 0.453125
vt 0.078125 0.671875
vt 0.062500 0.687500
vt 0.062500 0.437500
vt 0.328125 0.671875
vt 0.312500 0.687500
vt 0.296875 0.671875
vt 0.328125 0.453125
vt 0.312500 0.437500
vt 0.296875 0.453125
vt 0.781250 0.750000
vt 0.562500 0.750000
vt 1.000000 0.750000
s 0
usemtl Material
f 366/527/134 367/528/134 368/529/134 365/530/134
f 365/531/135 368/532/135 370/528/135 369/527/135
f 369/533/136 370/527/136 372/530/136 371/534/136
f 371/535/137 372/531/137 367/527/137 366/533/137
f 363/536/137 364/537/137 360/538/137 359/539/137
f 361/540/134 362/541/134 364/537/134 363/536/134
f 359/542/138 357/543/138 366/544/138 365/545/138
f 358/546/139 360/547/139 368/548/139 367/549/139
f 363/550/138 359/542/138 365/545/138 369/551/138
f 360/547/139 364/552/139 370/551/139 368/548/139
f 361/553/138 363/550/138 369/551/138 371/554/138
f 364/552/139 362/555/139 372/554/139 370/551/139
f 357/543/138 361/553/138 371/554/138 366/544/138
f 362/555/139 358/546/139 367/549/139 372/554/139
f 359/556/136 360/536/136 358/539/136 357/557/136
f 357/558/135 358/540/135 362/536/135 361/556/135
o Cube.024
v 0.262500 0.195293 0.069605
v 0.262500 0.345293 0.069605
v 0.262500 0.195293 -0.080395
v 0.262500 0.345293 -0.080395
v 0.300000 0.195293 0.069605
v 0.300000 0.345293 0.069605
v 0.300000 0.195293 -0.080395
v 0.300000 0.345293 -0.080395
vn -0.0000 -0.0000 -1.0000
vn 1.0000 -0.0000 -0.0000
vn -0.0000 -0.0000 1.0000
vn -0.0000 -1.0000 -0.0000
vn -0.0000 1.0000 -0.0000
vt 0.062500 0.906250
vt 0.000000 0.906250
vt 0.000000 0.890625
vt 0.062500 0.890625
vt 0.000000 0.968750
vt 0.000000 0.906250
vt 0.062500 0.906250
vt 0.062500 0.968750
vt 0.000000 0.875000
vt 0.062500 0.875000
vt 0.062500 0.859375
vt 0.000000 0.859375
vt 0.062500 0.843750
vt 0.000000 0.843750
s 0
usemtl Material
f 375/559/140 376/560/140 380/561/140 379/562/140
f 379/563/141 380/564/141 378/565/141 377/566/141
f 377/562/142 378/561/142 374/567/142 373/568/142
f 375/569/143 379/568/143 377/567/143 373/570/143
f 380/571/144 376/569/144 374/570/144 378/572/144
o Cube.025
v -0.262500 0.195293 0.069605
v -0.262500 0.345293 0.069605
v -0.262500 0.195293 -0.080395
v -0.262500 0.345293 -0.080395
v -0.300000 0.195293 0.069605
v -0.300000 0.345293 0.069605
v -0.300000 0.195293 -0.080395
v -0.300000 0.345293 -0.080395
vn -0.0000 -0.0000 -1.0000
vn -1.0000 -0.0000 -0.0000
vn -0.0000 -0.0000 1.0000
vn -0.0000 -1.0000 -0.0000
vn -0.0000 1.0000 -0.0000
vt 0.062500 0.781250
vt 0.000000 0.781250
vt 0.000000 0.765625
vt 0.062500 0.765625
vt 0.062500 0.656250
vt 0.062500 0.718750
vt 0.000000 0.718750
vt -0.000000 0.656250
vt 0.000000 0.750000
vt 0.062500 0.750000
vt 0.062500 0.734375
vt 0.000000 0.734375
s 0
usemtl Material
f 383/573/145 387/576/145 388/575/145 384/574/145
f 387/577/146 385/580/146 386/579/146 388/578/146
f 385/576/147 381/582/147 382/581/147 386/575/147
f 383/583/148 381/584/148 385/581/148 387/582/148
f 388/578/149 386/579/149 382/584/149 384/583/149
o Cube.026
v 0.300000 0.258836 0.046386
v 0.300000 0.322073 0.006061
v 0.300000 0.057214 -0.269800
v 0.300000 0.120451 -0.310125
v 0.375000 0.258836 0.046386
v 0.375000 0.322073 0.006061
v 0.375000 0.057214 -0.269800
v 0.375000 0.120451 -0.310125
vn -1.0000 -0.0000 -0.0000
vn 1.0000 -0.0000 -0.0000
vn -0.0000 0.5377 0.8432
vn -0.0000 -0.8432 0.5377
vn -0.0000 0.8432 -0.5377
vt 0.218750 0.906250
vt 0.218750 0.875000
vt 0.375000 0.875000
vt 0.375000 0.906250
vt 0.062500 0.906250
vt 0.062500 0.875000
vt 0.000000 0.843750
vt 0.000000 0.812500
vt 0.031250 0.812500
vt 0.031250 0.843750
vt 0.218750 0.968750
vt 0.218750 0.937500
vt 0.375000 0.937500
vt 0.375000 0.968750
vt 0.062500 0.968750
vt 0.062500 0.937500
s 0
usemtl Material
f 389/585/150 390/586/150 392/587/150 391/588/150
f 395/589/151 396/590/151 394/586/151 393/585/151
f 393/591/152 394/592/152 390/593/152 389/594/152
f 391/595/153 395/596/153 393/597/153 389/598/153
f 396/599/154 392/600/154 390/596/154 394/595/154
o Cube.027
v -0.375000 0.258836 0.046386
v -0.375000 0.322073 0.006061
v -0.375000 0.057214 -0.269800
v -0.375000 0.120451 -0.310125
v -0.300000 0.258836 0.046386
v -0.300000 0.322073 0.006061
v -0.300000 0.057214 -0.269800
v -0.300000 0.120451 -0.310125
vn -1.0000 -0.0000 -0.0000
vn 1.0000 -0.0000 -0.0000
vn -0.0000 0.5377 0.8432
vn -0.0000 -0.8432 0.5377
vn -0.0000 0.8432 -0.5377
vt 0.218750 0.875000
vt 0.218750 0.843750
vt 0.375000 0.843750
vt 0.375000 0.875000
vt 0.062500 0.875000
vt 0.062500 0.843750
vt 0.000000 0.812500
vt 0.000000 0.781250
vt 0.031250 0.781250
vt 0.031250 0.812500
vt 0.218750 0.937500
vt 0.218750 0.906250
vt 0.375000 0.906250
vt 0.375000 0.937500
vt 0.062500 0.937500
vt 0.062500 0.906250
s 0
usemtl Material
f 397/601/155 398/602/155 400/603/155 399/604/155
f 403/605/156 404/606/156 402/602/156 401/601/156
f 401/607/157 402/608/157 398/609/157 397/610/157
f 399/611/158 403/612/158 401/613/158 397/614/158
f 404/615/159 400/616/159 398/612/159 402/611/159
o Cube.028
v -0.375000 0.057214 -0.269800
v -0.375000 0.120451 -0.310125
v -0.375000 0.016890 -0.333038
v -0.375000 0.080127 -0.373362
v 0.375000 0.057214 -0.269800
v 0.375000 0.120451 -0.310125
v 0.375000 0.016890 -0.333038
v 0.375000 0.080127 -0.373362
vn -1.0000 -0.0000 -0.0000
vn -0.0000 -0.5377 -0.8432
vn 1.0000 -0.0000 -0.0000
vn -0.0000 0.5377 0.8432
vn -0.0000 -0.8432 0.5377
vn -0.0000 0.8432 -0.5377
vt 0.031250 0.812500
vt 0.031250 0.781250
vt 0.062500 0.781250
vt 0.062500 0.812500
vt 0.062500 0.750000
vt 0.062500 0.718750
vt 0.375000 0.718750
vt 0.375000 0.750000
vt 0.031250 0.843750
vt 0.062500 0.843750
vt 0.375000 0.781250
vt 0.375000 0.812500
vt 0.375000 0.843750
s 0
usemtl Material
f 405/617/160 406/618/160 408/619/160 407/620/160
f 407/621/161 408/622/161 412/623/161 411/624/161
f 411/625/162 412/617/162 410/620/162 409/626/162
f 409/619/163 410/621/163 406/624/163 405/627/163
f 407/628/164 411/620/164 409/619/164 405/627/164
f 412/629/165 408/626/165 406/620/165 410/628/165
